<svg xmlns="http://www.w3.org/2000/svg" version="1.1" xmlns:xlink="http://www.w3.org/1999/xlink" xmlns:svgjs="http://svgjs.dev/svgjs" width="1500" height="1500" viewBox="0 0 1500 1500"><rect width="1500" height="1500" fill="#000000"></rect><g transform="matrix(0.6666666666666666,0,0,0.6666666666666666,249.39393939393938,492.24887555334675)"><svg viewBox="0 0 396 204" data-background-color="#ffffff" preserveAspectRatio="xMidYMid meet" height="772" width="1500" xmlns="http://www.w3.org/2000/svg" xmlns:xlink="http://www.w3.org/1999/xlink"><g id="tight-bounds" transform="matrix(1,0,0,1,0.2400000000000091,0.16560114077194044)"><svg viewBox="0 0 395.52 203.66879771845612" height="203.66879771845612" width="395.52"><g><svg viewBox="0 0 395.52 203.66879771845612" height="203.66879771845612" width="395.52"><g transform="matrix(1,0,0,1,0,125.87548777693567)"><svg viewBox="0 0 395.52 77.79330994152046" height="77.79330994152046" width="395.52"><g id="textblocktransform"><svg viewBox="0 0 395.52 77.79330994152046" height="77.79330994152046" width="395.52" id="textblock"><g><svg viewBox="0 0 395.52 77.79330994152046" height="77.79330994152046" width="395.52"><g transform="matrix(1,0,0,1,0,0)"><svg width="395.52" viewBox="2.45 -40.95 256.48 50.45" height="77.79330994152046" data-palette-color="#000000"><path d="M13.95 0.55L13.95 0.55Q9.5 0.55 6.98-1.2 4.45-2.95 3.45-5.98 2.45-9 2.45-12.95L2.45-12.95 2.45-27.4Q2.45-31.55 3.45-34.6 4.45-37.65 6.98-39.3 9.5-40.95 13.95-40.95L13.95-40.95Q18.15-40.95 20.53-39.53 22.9-38.1 23.9-35.45 24.9-32.8 24.9-29.3L24.9-29.3 24.9-25.9 17.8-25.9 17.8-29.4Q17.8-31.1 17.63-32.5 17.45-33.9 16.68-34.73 15.9-35.55 14-35.55L14-35.55Q12.1-35.55 11.23-34.68 10.35-33.8 10.1-32.33 9.85-30.85 9.85-29L9.85-29 9.85-11.4Q9.85-9.2 10.2-7.78 10.55-6.35 11.48-5.63 12.4-4.9 14-4.9L14-4.9Q15.85-4.9 16.63-5.78 17.4-6.65 17.6-8.1 17.8-9.55 17.8-11.35L17.8-11.35 17.8-15 24.9-15 24.9-11.75Q24.9-8.15 23.95-5.38 23-2.6 20.63-1.03 18.25 0.55 13.95 0.55ZM35.2 0.45L35.2 0.45Q33.25 0.45 31.85-0.58 30.45-1.6 29.7-3.18 28.95-4.75 28.95-6.45L28.95-6.45Q28.95-9.15 29.95-11 30.95-12.85 32.6-14.1 34.25-15.35 36.35-16.28 38.45-17.2 40.6-17.95L40.6-17.95 40.6-20.45Q40.6-21.7 40.42-22.55 40.25-23.4 39.77-23.85 39.3-24.3 38.3-24.3L38.3-24.3Q37.45-24.3 36.92-23.9 36.4-23.5 36.17-22.78 35.95-22.05 35.9-21.1L35.9-21.1 35.8-19.35 29.35-19.6Q29.5-24.6 31.82-26.98 34.15-29.35 38.9-29.35L38.9-29.35Q43.25-29.35 45.22-26.95 47.2-24.55 47.2-20.45L47.2-20.45 47.2-7.1Q47.2-5.5 47.27-4.2 47.35-2.9 47.47-1.85 47.6-0.8 47.7 0L47.7 0 41.6 0Q41.45-1 41.22-2.27 41-3.55 40.9-4.15L40.9-4.15Q40.4-2.4 39-0.98 37.6 0.45 35.2 0.45ZM37.7-4.6L37.7-4.6Q38.35-4.6 38.92-4.93 39.5-5.25 39.95-5.7 40.4-6.15 40.6-6.5L40.6-6.5 40.6-14.55Q39.5-13.9 38.52-13.25 37.55-12.6 36.82-11.83 36.1-11.05 35.72-10.15 35.35-9.25 35.35-8.05L35.35-8.05Q35.35-6.45 35.97-5.53 36.6-4.6 37.7-4.6ZM58.74 0L52.2 0 52.2-28.9 58.74-28.9 58.74-26.4Q60.24-28 61.99-28.73 63.74-29.45 65.55-29.45L65.55-29.45Q67.25-29.45 68.52-28.6 69.8-27.75 70.39-25.9L70.39-25.9Q72.05-27.8 73.89-28.63 75.75-29.45 77.69-29.45L77.69-29.45Q79.25-29.45 80.44-28.68 81.65-27.9 82.34-26.38 83.05-24.85 83.05-22.55L83.05-22.55 83.05 0 76.55 0 76.55-21.95Q76.55-23.6 76-24.23 75.44-24.85 74.44-24.85L74.44-24.85Q73.64-24.85 72.67-24.4 71.69-23.95 70.89-23.15L70.89-23.15Q70.89-23 70.89-22.88 70.89-22.75 70.89-22.55L70.89-22.55 70.89 0 64.44 0 64.44-21.95Q64.44-23.6 63.87-24.23 63.3-24.85 62.3-24.85L62.3-24.85Q61.49-24.85 60.55-24.4 59.59-23.95 58.74-23.15L58.74-23.15 58.74 0ZM94.89 9.5L88.09 9.5 88.09-28.9 94.89-28.9 94.89-26.7Q96.14-27.9 97.64-28.63 99.14-29.35 100.79-29.35L100.79-29.35Q102.74-29.35 103.99-28.45 105.24-27.55 105.94-26.08 106.64-24.6 106.92-22.93 107.19-21.25 107.19-19.7L107.19-19.7 107.19-9.9Q107.19-7.05 106.52-4.7 105.84-2.35 104.37-0.95 102.89 0.45 100.44 0.45L100.44 0.45Q98.89 0.45 97.52-0.3 96.14-1.05 94.89-2.2L94.89-2.2 94.89 9.5ZM97.89-4.3L97.89-4.3Q98.99-4.3 99.52-5.03 100.04-5.75 100.22-6.98 100.39-8.2 100.39-9.65L100.39-9.65 100.39-20Q100.39-21.35 100.19-22.43 99.99-23.5 99.44-24.15 98.89-24.8 97.84-24.8L97.84-24.8Q97.04-24.8 96.27-24.43 95.49-24.05 94.89-23.55L94.89-23.55 94.89-5.3Q95.54-4.85 96.29-4.58 97.04-4.3 97.89-4.3ZM125.84 0L118.54 0 110.39-40.5 116.94-40.5 122.29-11.85 127.29-40.5 133.99-40.5 125.84 0ZM146.09 0.45L146.09 0.45Q142.84 0.45 140.79-0.78 138.74-2 137.76-4.38 136.79-6.75 136.79-10.1L136.79-10.1 136.79-18.8Q136.79-22.25 137.76-24.6 138.74-26.95 140.81-28.15 142.89-29.35 146.09-29.35L146.09-29.35Q149.54-29.35 151.46-28.05 153.39-26.75 154.21-24.28 155.04-21.8 155.04-18.25L155.04-18.25 155.04-14.15 143.54-14.15 143.54-8.45Q143.54-7.05 143.81-6.15 144.09-5.25 144.69-4.85 145.29-4.45 146.14-4.45L146.14-4.45Q147.04-4.45 147.59-4.88 148.14-5.3 148.39-6.13 148.64-6.95 148.64-8.2L148.64-8.2 148.64-10.6 154.99-10.6 154.99-8.65Q154.99-4.25 152.79-1.9 150.59 0.45 146.09 0.45ZM143.54-19.5L143.54-17.5 148.64-17.5 148.64-20.25Q148.64-21.75 148.39-22.68 148.14-23.6 147.59-24.03 147.04-24.45 146.04-24.45L146.04-24.45Q145.14-24.45 144.59-24 144.04-23.55 143.79-22.5 143.54-21.45 143.54-19.5L143.54-19.5ZM166.44 0L159.64 0 159.64-28.9 166.44-28.9 166.44-26Q167.99-27.5 169.71-28.43 171.44-29.35 173.44-29.35L173.44-29.35Q175.24-29.35 176.29-28.48 177.34-27.6 177.84-26.15 178.34-24.7 178.34-23L178.34-23 178.34 0 171.54 0 171.54-21.65Q171.54-22.95 171.14-23.65 170.74-24.35 169.59-24.35L169.59-24.35Q168.89-24.35 168.06-23.95 167.24-23.55 166.44-22.95L166.44-22.95 166.44 0ZM191.68 0.35L191.68 0.35Q188.93 0.35 187.36-0.55 185.78-1.45 185.13-3.15 184.48-4.85 184.48-7.2L184.48-7.2 184.48-24.4 181.58-24.4 181.58-28.9 184.48-28.9 184.48-37.55 191.33-37.55 191.33-28.9 195.73-28.9 195.73-24.4 191.33-24.4 191.33-7.8Q191.33-6.3 191.98-5.68 192.63-5.05 193.93-5.05L193.93-5.05Q194.48-5.05 195.01-5.1 195.53-5.15 196.03-5.2L196.03-5.2 196.03 0Q195.18 0.1 194.06 0.23 192.93 0.35 191.68 0.35ZM204.58 0.45L204.58 0.45Q202.88 0.45 201.78-0.43 200.68-1.3 200.18-2.78 199.68-4.25 199.68-5.9L199.68-5.9 199.68-28.9 206.48-28.9 206.48-7.15Q206.48-5.85 206.91-5.13 207.33-4.4 208.48-4.4L208.48-4.4Q209.23-4.4 210.01-4.8 210.78-5.2 211.53-5.75L211.53-5.75 211.53-28.9 218.33-28.9 218.33 0 211.53 0 211.53-2.75Q210.08-1.35 208.33-0.45 206.58 0.45 204.58 0.45ZM230.53 0L223.73 0 223.73-28.9 230.53-28.9 230.53-24.45Q232.03-27 233.53-28.13 235.03-29.25 236.83-29.25L236.83-29.25Q237.13-29.25 237.35-29.23 237.58-29.2 237.88-29.15L237.88-29.15 237.88-22.1Q237.28-22.35 236.55-22.53 235.83-22.7 235.08-22.7L235.08-22.7Q233.73-22.7 232.63-22.05 231.53-21.4 230.53-19.9L230.53-19.9 230.53 0ZM249.98 0.45L249.98 0.45Q246.73 0.45 244.68-0.78 242.63-2 241.65-4.38 240.68-6.75 240.68-10.1L240.68-10.1 240.68-18.8Q240.68-22.25 241.65-24.6 242.63-26.95 244.7-28.15 246.78-29.35 249.98-29.35L249.98-29.35Q253.43-29.35 255.35-28.05 257.28-26.75 258.1-24.28 258.93-21.8 258.93-18.25L258.93-18.25 258.93-14.15 247.43-14.15 247.43-8.45Q247.43-7.05 247.7-6.15 247.98-5.25 248.58-4.85 249.18-4.45 250.03-4.45L250.03-4.45Q250.93-4.45 251.48-4.88 252.03-5.3 252.28-6.13 252.53-6.95 252.53-8.2L252.53-8.2 252.53-10.6 258.88-10.6 258.88-8.65Q258.88-4.25 256.68-1.9 254.48 0.45 249.98 0.45ZM247.43-19.5L247.43-17.5 252.53-17.5 252.53-20.25Q252.53-21.75 252.28-22.68 252.03-23.6 251.48-24.03 250.93-24.45 249.93-24.45L249.93-24.45Q249.03-24.45 248.48-24 247.93-23.55 247.68-22.5 247.43-21.45 247.43-19.5L247.43-19.5Z" opacity="1" transform="matrix(1,0,0,1,0,0)" fill="#ffffff" class="wordmark-text-0" data-fill-palette-color="primary" id="text-0"></path></svg></g></svg></g></svg></g></svg></g><g transform="matrix(1,0,0,1,135.79020051020186,0)"><svg viewBox="0 0 123.93959897959628 107.51035433918129" height="107.51035433918129" width="123.93959897959628"><g><svg xmlns="http://www.w3.org/2000/svg" xmlns:xlink="http://www.w3.org/1999/xlink" version="1.1" x="0" y="0" viewBox="9.128174169997 17.961999999999996 82.618825830003 71.667" enable-background="new 0 0 100 100" xml:space="preserve" height="107.51035433918129" width="123.93959897959628" class="icon-icon-0" data-fill-palette-color="accent" id="icon-0"><path d="M79.801 83.122L53.896 36.955l8.653-15.878-5.716-3.115-6.698 12.292-6.309-11.245-0.048 0.028c-0.002-0.003-0.004-0.006-0.006-0.009-0.727 0.396-1.441 0.815-2.162 1.225l-0.747 0.419c-0.586 0.321-1.178 0.63-1.788 0.906 0.009 0.028 0.018 0.055 0.028 0.081l-0.955 0.535 8.308 14.808L21.324 83.122H9.226v0.366c-0.184 1.908-0.047 3.827-0.073 5.742 0.024 0 0.049 0 0.073 0v0.399h82.521v-6.508H79.801zM36.446 83.122c2.369-4.686 5.213-9.115 7.533-13.822 2.234-3.758 4.297-7.618 6.425-11.438 2.084 3.736 4.094 7.517 6.286 11.188 1.383 3.137 3.357 5.953 4.916 9 0.908 1.699 1.928 3.336 2.768 5.07H36.446V83.122z" fill="#ffffff" data-fill-palette-color="accent"></path></svg></g></svg></g><g></g></svg></g><defs></defs></svg><rect width="395.52" height="203.66879771845612" fill="none" stroke="none" visibility="hidden"></rect></g></svg></g></svg>